<svg width="153" height="26" viewBox="0 0 153 26" fill="none" xmlns="http://www.w3.org/2000/svg">
<path fill-rule="evenodd" clip-rule="evenodd" d="M15.9319 4.86808H3.54691C2.88308 4.86808 2.21925 4.86808 2.21925 5.64255C2.21925 6.26213 2.44053 6.78582 2.55117 6.97021C2.69869 7.30213 2.74498 8.03946 2.21925 8.74043C1.22351 10.0681 -0.104155 12.3915 0.00648793 14.8255C0.147161 17.9202 1.2235 19.8411 3.65755 21.4638C6.31287 23.234 9.30011 22.5702 10.1852 21.4638L23.9044 0H19.4788L15.9319 4.86808ZM6.09074 19.6937C6.23826 19.7306 6.64393 19.6495 7.08648 19.0299C7.52904 18.4103 12.5815 10.6583 15.0524 6.85969H4.87372C4.86276 6.85969 4.85139 6.85966 4.83966 6.85963C4.53566 6.85893 3.98861 6.85765 3.98861 7.30224C3.98861 7.65628 4.13613 8.11359 4.20989 8.29799C4.21807 8.31708 4.22674 8.33699 4.23574 8.35765C4.34842 8.61636 4.51313 8.99455 4.43116 9.40437C4.40367 9.54181 4.2874 9.76805 4.12984 10.0746C3.65328 11.0018 2.79908 12.6638 2.88223 14.8256C2.99287 17.7022 5.42691 19.6937 6.09074 19.6937Z" fill="#01D33C"/>
<path d="M11.5063 3.98298H14.8255L17.9234 0H15.0468L11.5063 3.98298Z" fill="#A42FFF"/>
<path d="M149.472 11.632C148.842 11.632 148.314 11.4987 147.888 11.232C147.472 10.9547 147.157 10.6027 146.944 10.176C146.741 9.73867 146.64 9.28533 146.64 8.816C146.64 8.34667 146.741 7.89867 146.944 7.472C147.157 7.03467 147.472 6.68267 147.888 6.416C148.314 6.13867 148.842 6 149.472 6C150.101 6 150.624 6.13867 151.04 6.416C151.466 6.68267 151.781 7.03467 151.984 7.472C152.197 7.89867 152.304 8.34667 152.304 8.816C152.304 9.28533 152.197 9.73867 151.984 10.176C151.781 10.6027 151.466 10.9547 151.04 11.232C150.624 11.4987 150.101 11.632 149.472 11.632ZM149.472 11.136C149.994 11.136 150.426 11.024 150.768 10.8C151.109 10.5653 151.365 10.272 151.536 9.92C151.706 9.568 151.792 9.2 151.792 8.816C151.792 8.42133 151.706 8.048 151.536 7.696C151.365 7.344 151.109 7.056 150.768 6.832C150.426 6.608 149.994 6.496 149.472 6.496C148.96 6.496 148.528 6.608 148.176 6.832C147.834 7.056 147.578 7.344 147.408 7.696C147.237 8.048 147.152 8.42133 147.152 8.816C147.152 9.2 147.237 9.568 147.408 9.92C147.578 10.272 147.834 10.5653 148.176 10.8C148.528 11.024 148.96 11.136 149.472 11.136ZM148.464 10.368V7.28H149.6C149.941 7.28 150.202 7.37067 150.384 7.552C150.576 7.73333 150.672 7.95733 150.672 8.224C150.672 8.42667 150.613 8.61333 150.496 8.784C150.378 8.95467 150.213 9.072 150 9.136L150.752 10.368H150.256L149.52 9.184H148.912V10.368H148.464ZM149.584 7.68H148.912V8.8H149.584C149.786 8.8 149.941 8.74133 150.048 8.624C150.154 8.50667 150.208 8.37867 150.208 8.24C150.208 8.09067 150.154 7.96267 150.048 7.856C149.941 7.73867 149.786 7.68 149.584 7.68Z" fill="#828282"/>
<path d="M138.708 21.9062C137.734 21.9062 137.041 21.6259 136.628 21.0654C136.229 20.4901 136.141 19.6935 136.362 18.6756L138 10.9752H135.964L136.185 9.95729H138.221L138.863 6.99219H140.057L139.438 9.95729H142.226L142.005 10.9752H139.217L137.535 18.8747C137.402 19.4943 137.439 19.9811 137.646 20.3352C137.867 20.6745 138.317 20.8441 138.995 20.8441C139.335 20.8441 139.667 20.8146 139.991 20.7556C140.33 20.6966 140.5 20.6671 140.5 20.6671L140.279 21.7071C140.279 21.7071 140.124 21.7366 139.814 21.7956C139.504 21.8694 139.136 21.9062 138.708 21.9062Z" fill="#828282"/>
<path d="M120 26.0002L123.452 9.9576H124.669L124.226 11.9933H124.315C124.315 11.9933 124.396 11.8827 124.558 11.6614C124.735 11.4254 124.993 11.1599 125.333 10.8648C125.672 10.5698 126.1 10.3116 126.616 10.0904C127.132 9.85434 127.737 9.73633 128.431 9.73633C129.419 9.73633 130.238 9.97973 130.887 10.4665C131.551 10.9386 132.045 11.5582 132.369 12.3253C132.694 13.0924 132.856 13.9185 132.856 14.8036C132.856 15.6444 132.716 16.4853 132.436 17.3261C132.17 18.167 131.772 18.9341 131.241 19.6274C130.725 20.306 130.09 20.8592 129.338 21.287C128.586 21.7 127.723 21.9065 126.749 21.9065C125.997 21.9065 125.37 21.7812 124.868 21.5304C124.381 21.2796 123.99 20.9846 123.695 20.6453C123.4 20.306 123.186 19.9888 123.054 19.6938C122.921 19.3987 122.84 19.2143 122.81 19.1406H122.7L121.239 26.0002H120ZM123.341 16.8836C123.341 17.5916 123.459 18.2407 123.695 18.8308C123.931 19.4209 124.3 19.9003 124.802 20.2691C125.303 20.6231 125.945 20.8002 126.727 20.8002C127.509 20.8002 128.202 20.6231 128.807 20.2691C129.412 19.9151 129.928 19.443 130.356 18.8529C130.784 18.2481 131.108 17.5916 131.329 16.8836C131.551 16.1755 131.661 15.4748 131.661 14.7814C131.661 14.0881 131.543 13.4464 131.307 12.8563C131.071 12.2515 130.702 11.7647 130.201 11.3959C129.699 11.0271 129.065 10.8427 128.298 10.8427C127.516 10.8427 126.823 11.0271 126.218 11.3959C125.613 11.7499 125.097 12.222 124.669 12.8121C124.241 13.4021 123.909 14.0586 123.673 14.7814C123.452 15.4895 123.341 16.1902 123.341 16.8836Z" fill="#828282"/>
<path d="M119.082 7.76657C118.801 7.76657 118.565 7.67068 118.373 7.47891C118.196 7.28714 118.108 7.05848 118.108 6.79295C118.108 6.52742 118.196 6.29877 118.373 6.10699C118.565 5.91522 118.801 5.81934 119.082 5.81934C119.362 5.81934 119.598 5.91522 119.79 6.10699C119.981 6.29877 120.077 6.52742 120.077 6.79295C120.077 7.05848 119.981 7.28714 119.79 7.47891C119.598 7.67068 119.362 7.76657 119.082 7.76657ZM115.32 21.6849L117.82 9.95721H119.015L116.515 21.6849H115.32Z" fill="#828282"/>
<path d="M106.039 21.6853L108.539 9.9576H109.779L109.425 11.5287H109.513C109.852 11.0714 110.302 10.6583 110.863 10.2895C111.423 9.92073 112.124 9.73633 112.965 9.73633C113.245 9.73633 113.496 9.75108 113.717 9.78058C113.939 9.81009 114.049 9.82484 114.049 9.82484L113.806 10.9976C113.806 10.9976 113.695 10.9829 113.474 10.9534C113.267 10.9238 113.039 10.9091 112.788 10.9091C112.183 10.9091 111.6 11.0566 111.04 11.3516C110.494 11.6467 110.007 12.1409 109.579 12.8342C109.152 13.5128 108.812 14.4348 108.562 15.6002L107.278 21.6853H106.039Z" fill="#828282"/>
<path d="M98.1361 21.9065C97.0739 21.9065 96.1962 21.6705 95.5029 21.1985C94.8243 20.7264 94.3154 20.1068 93.9761 19.3397C93.6515 18.5579 93.4893 17.717 93.4893 16.8172C93.4893 15.9026 93.6294 15.0248 93.9097 14.184C94.19 13.3431 94.5956 12.5908 95.1267 11.927C95.6725 11.2484 96.3363 10.7173 97.1182 10.3338C97.9148 9.93548 98.822 9.73633 99.8399 9.73633C100.695 9.73633 101.389 9.86909 101.92 10.1346C102.466 10.4002 102.879 10.7321 103.159 11.1304C103.454 11.5287 103.661 11.927 103.779 12.3253C103.897 12.7236 103.963 13.0555 103.978 13.321C104.007 13.5865 104.022 13.7193 104.022 13.7193H102.849C102.849 13.7193 102.842 13.6234 102.827 13.4316C102.812 13.2399 102.761 13.0038 102.672 12.7236C102.584 12.4285 102.429 12.1409 102.208 11.8606C102.001 11.5655 101.699 11.3221 101.3 11.1304C100.902 10.9386 100.386 10.8427 99.7514 10.8427C98.6745 10.8427 97.7599 11.123 97.0076 11.6836C96.27 12.2441 95.702 12.9743 95.3037 13.8742C94.9054 14.7593 94.7063 15.7182 94.7063 16.7508C94.7063 17.4736 94.8317 18.1448 95.0824 18.7644C95.3332 19.3692 95.7168 19.8634 96.2331 20.247C96.7494 20.6158 97.4059 20.8002 98.2024 20.8002C98.9843 20.8002 99.626 20.66 100.128 20.3797C100.644 20.0847 101.05 19.7454 101.345 19.3619C101.64 18.9783 101.846 18.6464 101.964 18.3661C102.082 18.0711 102.141 17.9236 102.141 17.9236H103.38C103.38 17.9236 103.329 18.0563 103.225 18.3219C103.122 18.5874 102.953 18.9193 102.716 19.3176C102.495 19.7159 102.178 20.1142 101.765 20.5125C101.367 20.9108 100.865 21.2427 100.26 21.5082C99.6703 21.7738 98.9622 21.9065 98.1361 21.9065Z" fill="#828282"/>
<path d="M85.9313 21.9065C85.0905 21.9065 84.4045 21.7885 83.8735 21.5525C83.3424 21.3017 82.9293 20.9919 82.6343 20.6231C82.354 20.2543 82.1549 19.8929 82.0369 19.5389C81.9188 19.1701 81.8451 18.8677 81.8156 18.6316C81.8008 18.3809 81.7935 18.2555 81.7935 18.2555H83.0105C83.0105 18.2555 83.0252 18.3882 83.0547 18.6538C83.0842 18.9046 83.1801 19.1996 83.3424 19.5389C83.5194 19.8634 83.8071 20.1585 84.2054 20.424C84.6184 20.6748 85.2011 20.8002 85.9535 20.8002C86.8238 20.8002 87.5393 20.5936 88.0998 20.1806C88.6752 19.7675 88.9628 19.2365 88.9628 18.5874C88.9628 18.0416 88.7858 17.6212 88.4318 17.3261C88.0925 17.0311 87.6868 16.7729 87.2147 16.5516L85.8649 15.9099C85.2011 15.6149 84.6479 15.2461 84.2054 14.8036C83.7776 14.3463 83.5637 13.7488 83.5637 13.0112C83.5637 12.4064 83.7186 11.8606 84.0284 11.3738C84.3381 10.8722 84.7807 10.4739 85.356 10.1789C85.9461 9.88385 86.6394 9.73633 87.436 9.73633C88.2031 9.73633 88.8227 9.85434 89.2947 10.0904C89.7815 10.3116 90.1577 10.5919 90.4232 10.9312C90.6888 11.2558 90.8806 11.5877 90.9986 11.927C91.1166 12.2515 91.1903 12.5318 91.2198 12.7678C91.2493 12.9891 91.2641 13.0997 91.2641 13.0997H90.0692C90.0692 13.0997 90.0471 12.9891 90.0028 12.7678C89.9733 12.5318 89.8701 12.2663 89.693 11.9712C89.5308 11.6614 89.2652 11.3959 88.8964 11.1746C88.5424 10.9386 88.0408 10.8206 87.3918 10.8206C86.6099 10.8206 85.9756 11.0124 85.4888 11.3959C85.002 11.7647 84.7586 12.2663 84.7586 12.9006C84.7586 13.3874 84.9135 13.7783 85.2232 14.0733C85.533 14.3684 85.9166 14.6192 86.3739 14.8257L87.7237 15.4453C88.1072 15.6223 88.4834 15.8362 88.8522 16.087C89.2357 16.3377 89.5529 16.6549 89.8037 17.0385C90.0545 17.422 90.1798 17.9088 90.1798 18.4989C90.1798 19.148 90.0028 19.7307 89.6488 20.247C89.2947 20.7633 88.7932 21.169 88.1441 21.464C87.5098 21.759 86.7722 21.9065 85.9313 21.9065Z" fill="#828282"/>
<path d="M74.4334 21.9065C73.4746 21.9065 72.6411 21.7369 71.933 21.3976C71.2397 21.0436 70.6644 20.5715 70.2071 19.9814C69.7645 19.3914 69.4326 18.7423 69.2113 18.0342C68.99 17.3114 68.8794 16.5738 68.8794 15.8214C68.8794 15.0838 68.9827 14.3536 69.1892 13.6308C69.4105 12.908 69.7424 12.2515 70.1849 11.6614C70.6422 11.0714 71.2102 10.6067 71.8888 10.2674C72.5821 9.91335 73.4008 9.73633 74.3449 9.73633C75.348 9.73633 76.2332 9.96498 77.0002 10.4223C77.7673 10.8796 78.3722 11.5582 78.8147 12.458C79.2573 13.3579 79.4785 14.4864 79.4785 15.8436V16.4631H71.0037C71.0479 17.127 71.2028 17.7392 71.4683 18.2997C71.7486 18.8455 72.1395 19.2881 72.6411 19.6274C73.1427 19.9519 73.7401 20.1142 74.4334 20.1142C75.0383 20.1142 75.5251 20.0183 75.8939 19.8265C76.2774 19.62 76.5798 19.384 76.8011 19.1185C77.0224 18.8529 77.1699 18.6243 77.2437 18.4325C77.3322 18.226 77.3764 18.1227 77.3764 18.1227H79.3458C79.3458 18.1227 79.3089 18.2555 79.2351 18.521C79.1614 18.7718 79.0286 19.0816 78.8368 19.4504C78.6451 19.8192 78.3648 20.1953 77.996 20.5789C77.6272 20.9477 77.1551 21.2648 76.5798 21.5304C76.0045 21.7812 75.289 21.9065 74.4334 21.9065ZM71.0258 14.8257H77.4207C77.3912 14.0586 77.2289 13.439 76.9339 12.967C76.6388 12.4802 76.2627 12.1187 75.8054 11.8827C75.348 11.6467 74.8612 11.5287 74.3449 11.5287C73.4156 11.5287 72.6558 11.8311 72.0658 12.4359C71.4757 13.026 71.129 13.8226 71.0258 14.8257Z" fill="white"/>
<path d="M64.6043 21.9066C63.3946 21.9066 62.48 21.5968 61.8604 20.9772C61.2556 20.3576 60.9532 19.4873 60.9532 18.3661V11.6836H58.8511V9.95763H60.9532V7.01465H63.0553V9.95763H65.9098V11.6836H63.0553V18.3661C63.0553 18.9562 63.2176 19.3914 63.5421 19.6717C63.8667 19.9372 64.3387 20.07 64.9583 20.07C65.2828 20.07 65.5926 20.0478 65.8877 20.0036C66.1827 19.9593 66.3302 19.9372 66.3302 19.9372V21.7295C66.3302 21.7295 66.1606 21.759 65.8213 21.8181C65.482 21.8771 65.0763 21.9066 64.6043 21.9066Z" fill="white"/>
<path d="M50.5074 9.73633C51.245 9.73633 51.8646 9.85434 52.3661 10.0904C52.8677 10.3264 53.2734 10.6067 53.5832 10.9312C53.8929 11.241 54.129 11.536 54.2912 11.8163H54.424V9.9576H56.5261V21.6853H54.424V19.8265H54.2912C54.129 20.1068 53.8929 20.4092 53.5832 20.7338C53.2734 21.0583 52.8677 21.3386 52.3661 21.5746C51.8646 21.7959 51.245 21.9065 50.5074 21.9065C49.6223 21.9065 48.8478 21.7369 48.184 21.3976C47.5202 21.0436 46.967 20.5789 46.5244 20.0036C46.0819 19.4135 45.75 18.757 45.5287 18.0342C45.3074 17.3114 45.1968 16.5738 45.1968 15.8214C45.1968 15.0691 45.3074 14.3315 45.5287 13.6087C45.75 12.8858 46.0819 12.2368 46.5244 11.6614C46.967 11.0714 47.5202 10.6067 48.184 10.2674C48.8478 9.91335 49.6223 9.73633 50.5074 9.73633ZM50.8615 11.5287C50.0796 11.5287 49.4232 11.7426 48.8921 12.1704C48.361 12.5834 47.9627 13.1145 47.6972 13.7636C47.4464 14.4126 47.321 15.0986 47.321 15.8214C47.321 16.5295 47.4464 17.2155 47.6972 17.8793C47.9627 18.5284 48.361 19.0668 48.8921 19.4946C49.4232 19.9077 50.0796 20.1142 50.8615 20.1142C51.6433 20.1142 52.2924 19.9077 52.8087 19.4946C53.3398 19.0668 53.7307 18.5284 53.9815 17.8793C54.247 17.2155 54.3798 16.5295 54.3798 15.8214C54.3798 15.0986 54.247 14.4126 53.9815 13.7636C53.7307 13.1145 53.3398 12.5834 52.8087 12.1704C52.2924 11.7426 51.6433 11.5287 50.8615 11.5287Z" fill="white"/>
<path d="M26.332 21.685V5.31055H29.1865L34.0103 15.0467L38.812 5.31055H41.6665V21.685H39.5422V8.49693L35.0282 17.4808H32.9703L28.4563 8.45267V21.685H26.332Z" fill="white"/>
</svg>
